<svg width="26" height="32" viewBox="0 0 26 32" fill="none" xmlns="http://www.w3.org/2000/svg">
<path d="M22.4997 6.50033H19.333C19.333 3.00116 16.4988 0.166992 12.9997 0.166992C9.50051 0.166992 6.66634 3.00116 6.66634 6.50033H3.49967C1.75801 6.50033 0.333008 7.92533 0.333008 9.66699V28.667C0.333008 30.4087 1.75801 31.8337 3.49967 31.8337H22.4997C24.2413 31.8337 25.6663 30.4087 25.6663 28.667V9.66699C25.6663 7.92533 24.2413 6.50033 22.4997 6.50033ZM12.9997 3.33366C14.7413 3.33366 16.1663 4.75866 16.1663 6.50033H9.83301C9.83301 4.75866 11.258 3.33366 12.9997 3.33366ZM22.4997 28.667H3.49967V9.66699H6.66634V12.8337C6.66634 13.7045 7.37884 14.417 8.24967 14.417C9.12051 14.417 9.83301 13.7045 9.83301 12.8337V9.66699H16.1663V12.8337C16.1663 13.7045 16.8788 14.417 17.7497 14.417C18.6205 14.417 19.333 13.7045 19.333 12.8337V9.66699H22.4997V28.667Z" fill="#9949B4"/>
</svg>
