<svg width="26" height="32" viewBox="0 0 26 32" fill="none" xmlns="http://www.w3.org/2000/svg">
<path d="M22.4997 6.49935H19.333C19.333 3.00018 16.4988 0.166016 12.9997 0.166016C9.50051 0.166016 6.66634 3.00018 6.66634 6.49935H3.49967C1.75801 6.49935 0.333008 7.92435 0.333008 9.66602V28.666C0.333008 30.4077 1.75801 31.8327 3.49967 31.8327H22.4997C24.2413 31.8327 25.6663 30.4077 25.6663 28.666V9.66602C25.6663 7.92435 24.2413 6.49935 22.4997 6.49935ZM12.9997 3.33268C14.7413 3.33268 16.1663 4.75768 16.1663 6.49935H9.83301C9.83301 4.75768 11.258 3.33268 12.9997 3.33268ZM22.4997 28.666H3.49967V9.66602H6.66634V12.8327C6.66634 13.7035 7.37884 14.416 8.24967 14.416C9.12051 14.416 9.83301 13.7035 9.83301 12.8327V9.66602H16.1663V12.8327C16.1663 13.7035 16.8788 14.416 17.7497 14.416C18.6205 14.416 19.333 13.7035 19.333 12.8327V9.66602H22.4997V28.666Z" fill="#9949B4"/>
</svg>
