<?xml version="1.0" encoding="UTF-8"?>
<!DOCTYPE svg PUBLIC "-//W3C//DTD SVG 1.0//EN" "http://www.w3.org/TR/2001/REC-SVG-20010904/DTD/svg10.dtd">
<!-- Creator: CorelDRAW 2020 (64 Bit) -->
<svg xmlns="http://www.w3.org/2000/svg" xml:space="preserve" width="35px" height="35px" version="1.0" style="shape-rendering:geometricPrecision; text-rendering:geometricPrecision; image-rendering:optimizeQuality; fill-rule:evenodd; clip-rule:evenodd"
viewBox="0 0 301 301"
 xmlns:xlink="http://www.w3.org/1999/xlink"
 xmlns:xodm="http://www.corel.com/coreldraw/odm/2003">
 <defs>
  <style type="text/css">
   <![CDATA[
    .str1 {stroke:#FEFEFE;stroke-width:2;stroke-miterlimit:22.9256}
    .str0 {stroke:#E6E7E8;stroke-width:2;stroke-miterlimit:22.9256}
    .str2 {stroke:#D2D3D5;stroke-width:2;stroke-miterlimit:22.9256}
    .fil4 {fill:none}
    .fil0 {fill:#96989A}
    .fil2 {fill:#FEFEFE;fill-rule:nonzero}
    .fil1 {fill:#E6E7E8;fill-rule:nonzero}
    .fil3 {fill:#D2D3D5;fill-rule:nonzero}
   ]]>
  </style>
   <clipPath id="id0">
    <path d="M0 0l301 0 0 301 -301 0 0 -301z"/>
   </clipPath>
 </defs>
 <g id="Camada_x0020_1">
  <metadata id="CorelCorpID_0Corel-Layer"/>
  <g>
  </g>
  <g style="clip-path:url(#id0)">
   <g>
    <circle class="fil0" cx="149" cy="151" r="150"/>
    <path class="fil1 str0" d="M211 129c6,0 11,2 14,4l0 0 0 0 0 0 0 0 0 0 0 0 -1 0 0 0 0 -1 0 0 0 0 0 0 0 0 0 0 -1 0 0 0 0 0 0 0 0 0 0 0 0 0 -1 0 0 -1 0 0 0 0 0 0 -1 0 0 0 0 0 0 0 0 0 0 0 0 0 -1 0 0 0 0 0 0 0 0 0 0 0 -1 0 0 0 0 -1 0 0 0 0 0 0 0 0 -1 0 0 0 0 0 0 0 0 0 0 0 -1 0 0 0 0 0 0 0 0 0 0 0 0 0 -1 0 0 0 0 0 0 0 0 0 0 0 -1 0 0 0 0 0 0 0 0 0 0 0 -1 -1 0 0 0 0 0 0 0 0 0 0 -1 0 0 0 0 0 0 0 0 0 0 0 -1 0 0 0 0 0 0 0 0 0 0 0 -1 0 0 0zm0 0l0 0 0 0 0 0 0 0 0 0zm-106 94l0 1 117 0c8,0 13,2 17,5 4,3 6,8 6,13 0,5 -2,9 -6,12 -4,3 -9,5 -17,5l-136 0c-11,0 -19,-2 -23,-6 -5,-5 -8,-11 -8,-21l0 -6c22,-20 50,-3 50,-3 0,0 0,0 0,0zm-46 -170l0 0c2,-4 5,-6 9,-8l-1 0c-4,2 -6,5 -8,8zm177 18l0 0c-4,3 -9,5 -17,5l1 0 0 0 0 0 0 0 1 0 0 0 0 0 0 0 0 0 1 0 0 0 0 0 0 0 0 0 1 0 0 0 0 -1 0 0 0 0 1 0 0 0 0 0 0 0 0 0 0 0 1 0 0 0 0 0 0 0 0 0 1 0 0 0 0 0 0 0 0 0 0 0 1 0 0 0 0 0 0 0 0 0 0 0 1 0 0 0 0 0 0 0 0 -1 0 0 1 0 0 0 0 0 0 0 1 0 0 0 0 0 0 0 0 0 0 0 1 0 0 0 0 0 0 0 0 0 0 -1 1 0 0 0 0 0 0 0 0 0 0 0 0 0 0 0 1 0 0 0 0 0 0 0 0 0 0 0 0 0 0 0 0 0 0 0 0 0 0 0 0 0 0 0 0 0 0 0 0 0 0 0 0 0 0 0 0 -1 1 0 0 0 0 0 0 0 0 0 0 0 0 0 0 0 0 0 0 0 0 0 0 0 0 0 0 0 0 0 0 0 0 0 0 0 0 0 0 0 0 0 1 0 0 -1 0 0 0 0 1 0z"/>
    <path class="fil2 str1" d="M218 76l-113 0 0 53 104 0c11,0 23,4 23,17 0,4 -2,9 -6,12 -4,3 -9,4 -17,4l-104 0 0 61c0,0 0,0 0,0 0,0 -28,-17 -50,3l0 -157c0,-21 12,-27 31,-27l132 0c8,0 14,1 18,4 3,4 5,8 5,13 0,13 -12,17 -23,17z"/>
    <path class="fil3 str2" d="M218 76l-113 0 0 53 104 0c11,0 23,4 23,17 0,4 -2,9 -6,12 -4,3 -9,4 -17,4l-102 0c-16,-10 -38,-10 -52,4l0 -97c0,-21 12,-27 31,-27l132 0c8,0 14,1 18,4 3,4 5,8 5,13 0,13 -12,17 -23,17z"/>
    <path class="fil1 str0" d="M218 76l-113 0 0 50c-16,-11 -36,-8 -50,3l0 -60c0,-21 12,-27 31,-27l132 0c8,0 14,1 18,4 3,4 5,8 5,13 0,13 -12,17 -23,17z"/>
    <path class="fil2 str1" d="M218 76l-110 0c9,-13 5,-26 -4,-34l114 0c8,0 14,1 18,4 3,4 5,8 5,13 0,13 -12,17 -23,17z"/>
   </g>
  </g>
  <polygon class="fil4" points="0,0 301,0 301,301 0,301 "/>
 </g>
</svg>
