<svg width="35" height="32" viewBox="0 0 35 32" fill="none" xmlns="http://www.w3.org/2000/svg">
<path d="M25.4092 0C22.3748 0 19.4626 1.41253 17.5617 3.64469C15.6609 1.41253 12.7487 0 9.71433 0C4.34321 0 0.123047 4.22016 0.123047 9.59128C0.123047 16.1831 6.0522 21.5542 15.0331 29.7155L17.5617 32L20.0903 29.6981C29.0713 21.5542 35.0004 16.1831 35.0004 9.59128C35.0004 4.22016 30.7803 0 25.4092 0ZM17.7361 27.1172L17.5617 27.2916L17.3874 27.1172C9.08653 19.6011 3.61079 14.6311 3.61079 9.59128C3.61079 6.10354 6.22659 3.48774 9.71433 3.48774C12.3999 3.48774 15.0157 5.21417 15.9399 7.60327H19.201C20.1078 5.21417 22.7236 3.48774 25.4092 3.48774C28.8969 3.48774 31.5127 6.10354 31.5127 9.59128C31.5127 14.6311 26.0369 19.6011 17.7361 27.1172Z" fill="#F6543B"/>
<path d="M25.4092 0C22.3748 0 19.4626 1.41253 17.5617 3.64469C15.6609 1.41253 12.7487 0 9.71433 0C4.34321 0 0.123047 4.22016 0.123047 9.59128C0.123047 16.1831 6.0522 21.5542 15.0331 29.7155L17.5617 32L20.0903 29.6981C29.0713 21.5542 35.0004 16.1831 35.0004 9.59128C35.0004 4.22016 30.7803 0 25.4092 0ZM17.7361 27.1172L17.5617 27.2916L17.3874 27.1172C9.08653 19.6011 3.61079 14.6311 3.61079 9.59128C3.61079 6.10354 6.22659 3.48774 9.71433 3.48774C12.3999 3.48774 15.0157 5.21417 15.9399 7.60327H19.201C20.1078 5.21417 22.7236 3.48774 25.4092 3.48774C28.8969 3.48774 31.5127 6.10354 31.5127 9.59128C31.5127 14.6311 26.0369 19.6011 17.7361 27.1172Z" fill="#FAC900"/>
<path d="M25.4092 0C22.3748 0 19.4626 1.41253 17.5617 3.64469C15.6609 1.41253 12.7487 0 9.71433 0C4.34321 0 0.123047 4.22016 0.123047 9.59128C0.123047 16.1831 6.0522 21.5542 15.0331 29.7155L17.5617 32L20.0903 29.6981C29.0713 21.5542 35.0004 16.1831 35.0004 9.59128C35.0004 4.22016 30.7803 0 25.4092 0ZM17.7361 27.1172L17.5617 27.2916L17.3874 27.1172C9.08653 19.6011 3.61079 14.6311 3.61079 9.59128C3.61079 6.10354 6.22659 3.48774 9.71433 3.48774C12.3999 3.48774 15.0157 5.21417 15.9399 7.60327H19.201C20.1078 5.21417 22.7236 3.48774 25.4092 3.48774C28.8969 3.48774 31.5127 6.10354 31.5127 9.59128C31.5127 14.6311 26.0369 19.6011 17.7361 27.1172Z" fill="#61E061"/>
<path d="M25.4092 0C22.3748 0 19.4626 1.41253 17.5617 3.64469C15.6609 1.41253 12.7487 0 9.71433 0C4.34321 0 0.123047 4.22016 0.123047 9.59128C0.123047 16.1831 6.0522 21.5542 15.0331 29.7155L17.5617 32L20.0903 29.6981C29.0713 21.5542 35.0004 16.1831 35.0004 9.59128C35.0004 4.22016 30.7803 0 25.4092 0ZM17.7361 27.1172L17.5617 27.2916L17.3874 27.1172C9.08653 19.6011 3.61079 14.6311 3.61079 9.59128C3.61079 6.10354 6.22659 3.48774 9.71433 3.48774C12.3999 3.48774 15.0157 5.21417 15.9399 7.60327H19.201C20.1078 5.21417 22.7236 3.48774 25.4092 3.48774C28.8969 3.48774 31.5127 6.10354 31.5127 9.59128C31.5127 14.6311 26.0369 19.6011 17.7361 27.1172Z" fill="#4EBFE9"/>
<path d="M25.4092 0C22.3748 0 19.4626 1.41253 17.5617 3.64469C15.6609 1.41253 12.7487 0 9.71433 0C4.34321 0 0.123047 4.22016 0.123047 9.59128C0.123047 16.1831 6.0522 21.5542 15.0331 29.7155L17.5617 32L20.0903 29.6981C29.0713 21.5542 35.0004 16.1831 35.0004 9.59128C35.0004 4.22016 30.7803 0 25.4092 0ZM17.7361 27.1172L17.5617 27.2916L17.3874 27.1172C9.08653 19.6011 3.61079 14.6311 3.61079 9.59128C3.61079 6.10354 6.22659 3.48774 9.71433 3.48774C12.3999 3.48774 15.0157 5.21417 15.9399 7.60327H19.201C20.1078 5.21417 22.7236 3.48774 25.4092 3.48774C28.8969 3.48774 31.5127 6.10354 31.5127 9.59128C31.5127 14.6311 26.0369 19.6011 17.7361 27.1172Z" fill="#C75EEB"/>
<path d="M25.4092 0C22.3748 0 19.4626 1.41253 17.5617 3.64469C15.6609 1.41253 12.7487 0 9.71433 0C4.34321 0 0.123047 4.22016 0.123047 9.59128C0.123047 16.1831 6.0522 21.5542 15.0331 29.7155L17.5617 32L20.0903 29.6981C29.0713 21.5542 35.0004 16.1831 35.0004 9.59128C35.0004 4.22016 30.7803 0 25.4092 0ZM17.7361 27.1172L17.5617 27.2916L17.3874 27.1172C9.08653 19.6011 3.61079 14.6311 3.61079 9.59128C3.61079 6.10354 6.22659 3.48774 9.71433 3.48774C12.3999 3.48774 15.0157 5.21417 15.9399 7.60327H19.201C20.1078 5.21417 22.7236 3.48774 25.4092 3.48774C28.8969 3.48774 31.5127 6.10354 31.5127 9.59128C31.5127 14.6311 26.0369 19.6011 17.7361 27.1172Z" fill="url(#paint0_linear_57_227)"/>
<defs>
<linearGradient id="paint0_linear_57_227" x1="13.636" y1="-1.93938" x2="53.9056" y2="1.50796" gradientUnits="userSpaceOnUse">
<stop stop-color="#733887"/>
<stop offset="1" stop-color="#C75EEB"/>
</linearGradient>
</defs>
</svg>
